HIERARCHY
ROOT hip
{
  OFFSET 0.00112043 5.09927 -9.65472
  CHANNELS 6 Xposition Yposition Zposition Zrotation Xrotation Yrotation
  JOINT abdomen
  {
    OFFSET 0 -1.186 -1.5018
    CHANNELS 3 Zrotation Xrotation Yrotation
    JOINT abdomen2
    {
      OFFSET 0 9.964 0.2134
      CHANNELS 3 Zrotation Xrotation Yrotation
      JOINT chest
      {
        OFFSET 0 13.134 -3.2573
        CHANNELS 3 Zrotation Xrotation Yrotation
        JOINT neck
        {
          OFFSET 0 20.686 -1.6905
          CHANNELS 3 Zrotation Xrotation Yrotation
          JOINT head
          {
            OFFSET 0 7.238 -0.1237
            CHANNELS 3 Zrotation Xrotation Yrotation
            End Site
            {
              OFFSET 0 0 0
            }
          }
        }
        JOINT lCollar
        {
          OFFSET 1.7069 20.075 5.0056
          CHANNELS 3 Zrotation Xrotation Yrotation
          JOINT lShldr
          {
            OFFSET 13.6458 -0.047 -4.849
            CHANNELS 3 Zrotation Xrotation Yrotation
            JOINT lForeArm
            {
              OFFSET 28.3255 -0.9759 2.2888
              CHANNELS 3 Zrotation Xrotation Yrotation
              JOINT lHand
              {
                OFFSET 22.1583 -0.53 10.8316
                CHANNELS 3 Zrotation Xrotation Yrotation
                JOINT lThumb1
                {
                  OFFSET 0.786 0.112 2.5817
                  CHANNELS 3 Zrotation Xrotation Yrotation
                  JOINT lThumb2
                  {
                    OFFSET 0.3601 -0.878 4.2331
                    CHANNELS 3 Zrotation Xrotation Yrotation
                    JOINT lThumb2_End
                    {
                      OFFSET 1.8127 -1.216 2.2227
                      CHANNELS 3 Zrotation Xrotation Yrotation
                      End Site
                      {
                        OFFSET 0.0181 -0.0122 0.0222
                      }
                    }
                  }
                }
                JOINT lCarpal1
                {
                  OFFSET 0.9571 1.114 1.7695
                  CHANNELS 3 Zrotation Xrotation Yrotation
                  JOINT lIndex1
                  {
                    OFFSET 4.1246 0.487 4.1451
                    CHANNELS 3 Zrotation Xrotation Yrotation
                    JOINT lIndex2
                    {
                      OFFSET 3.4052 -1.454 2.7682
                      CHANNELS 3 Zrotation Xrotation Yrotation
                      JOINT lIndex2_End
                      {
                        OFFSET 1.4531 -1.795 1.2713
                        CHANNELS 3 Zrotation Xrotation Yrotation
                        End Site
                        {
                          OFFSET 0.0145 -0.0179 0.0127
                        }
                      }
                    }
                  }
                  JOINT lMid1
                  {
                    OFFSET 5.6954 0.21 2.1184
                    CHANNELS 3 Zrotation Xrotation Yrotation
                    JOINT lMid2
                    {
                      OFFSET 3.9766 -1.54 2.3863
                      CHANNELS 3 Zrotation Xrotation Yrotation
                      JOINT lMid2_End
                      {
                        OFFSET 1.4042 -1.926 1.125
                        CHANNELS 3 Zrotation Xrotation Yrotation
                        End Site
                        {
                          OFFSET 0.014 -0.0193 0.0113
                        }
                      }
                    }
                  }
                }
                JOINT lCarpal2
                {
                  OFFSET 2.0956 0.66 -0.3894
                  CHANNELS 3 Zrotation Xrotation Yrotation
                  JOINT lRing1
                  {
                    OFFSET 5.0395 -0.09 2.4971
                    CHANNELS 3 Zrotation Xrotation Yrotation
                    JOINT lRing2
                    {
                      OFFSET 3.7921 -1.552 1.4806
                      CHANNELS 3 Zrotation Xrotation Yrotation
                      JOINT lRing2_End
                      {
                        OFFSET 1.4655 -1.808 0.9609
                        CHANNELS 3 Zrotation Xrotation Yrotation
                        End Site
                        {
                          OFFSET 0.0147 -0.0181 0.0096
                        }
                      }
                    }
                  }
                  JOINT lPinky1
                  {
                    OFFSET 4.9141 -1.269 0.3591
                    CHANNELS 3 Zrotation Xrotation Yrotation
                    JOINT lPinky2
                    {
                      OFFSET 3.1477 -1.685 0.8462
                      CHANNELS 3 Zrotation Xrotation Yrotation
                      JOINT lPinky2_End
                      {
                        OFFSET 0.8055 -1.585 0.7955
                        CHANNELS 3 Zrotation Xrotation Yrotation
                        End Site
                        {
                          OFFSET 0.0081 -0.0158 0.008
                        }
                      }
                    }
                  }
                }
              }
            }
          }
        }
        JOINT rCollar
        {
          OFFSET -1.7069 20.075 5.0056
          CHANNELS 3 Zrotation Xrotation Yrotation
          JOINT rShldr
          {
            OFFSET -13.6458 -0.047 -4.849
            CHANNELS 3 Zrotation Xrotation Yrotation
            JOINT rForeArm
            {
              OFFSET -28.3255 -0.9759 2.2888
              CHANNELS 3 Zrotation Xrotation Yrotation
              JOINT rHand
              {
                OFFSET -22.1583 -0.53 10.8316
                CHANNELS 3 Zrotation Xrotation Yrotation
                JOINT rThumb1
                {
                  OFFSET -0.786 0.112 2.5817
                  CHANNELS 3 Zrotation Xrotation Yrotation
                  JOINT rThumb2
                  {
                    OFFSET -0.3601 -0.878 4.2331
                    CHANNELS 3 Zrotation Xrotation Yrotation
                    JOINT rThumb2_End
                    {
                      OFFSET -1.8127 -1.216 2.2227
                      CHANNELS 3 Zrotation Xrotation Yrotation
                      End Site
                      {
                        OFFSET -0.0181 -0.0122 0.0222
                      }
                    }
                  }
                }
                JOINT rCarpal1
                {
                  OFFSET -0.9571 1.114 1.7695
                  CHANNELS 3 Zrotation Xrotation Yrotation
                  JOINT rIndex1
                  {
                    OFFSET -4.1246 0.487 4.1451
                    CHANNELS 3 Zrotation Xrotation Yrotation
                    JOINT rIndex2
                    {
                      OFFSET -3.4052 -1.454 2.7682
                      CHANNELS 3 Zrotation Xrotation Yrotation
                      JOINT rIndex2_End
                      {
                        OFFSET -1.4531 -1.795 1.2713
                        CHANNELS 3 Zrotation Xrotation Yrotation
                        End Site
                        {
                          OFFSET -0.0145 -0.018 0.0127
                        }
                      }
                    }
                  }
                  JOINT rMid1
                  {
                    OFFSET -5.6954 0.21 2.1184
                    CHANNELS 3 Zrotation Xrotation Yrotation
                    JOINT rMid2
                    {
                      OFFSET -3.9766 -1.54 2.3863
                      CHANNELS 3 Zrotation Xrotation Yrotation
                      JOINT rMid2_End
                      {
                        OFFSET -1.4042 -1.926 1.125
                        CHANNELS 3 Zrotation Xrotation Yrotation
                        End Site
                        {
                          OFFSET -0.014 -0.0193 0.0113
                        }
                      }
                    }
                  }
                }
                JOINT rCarpal2
                {
                  OFFSET -2.0956 0.66 -0.3894
                  CHANNELS 3 Zrotation Xrotation Yrotation
                  JOINT rRing1
                  {
                    OFFSET -5.0395 -0.09 2.4971
                    CHANNELS 3 Zrotation Xrotation Yrotation
                    JOINT rRing2
                    {
                      OFFSET -3.7921 -1.552 1.4806
                      CHANNELS 3 Zrotation Xrotation Yrotation
                      JOINT rRing2_End
                      {
                        OFFSET -1.4655 -1.808 0.9609
                        CHANNELS 3 Zrotation Xrotation Yrotation
                        End Site
                        {
                          OFFSET -0.0147 -0.0181 0.0096
                        }
                      }
                    }
                  }
                  JOINT rPinky1
                  {
                    OFFSET -4.9141 -1.269 0.3592
                    CHANNELS 3 Zrotation Xrotation Yrotation
                    JOINT rPinky2
                    {
                      OFFSET -3.1477 -1.685 0.8462
                      CHANNELS 3 Zrotation Xrotation Yrotation
                      JOINT rPinky2_End
                      {
                        OFFSET -0.8055 -1.585 0.7955
                        CHANNELS 3 Zrotation Xrotation Yrotation
                        End Site
                        {
                          OFFSET -0.0081 -0.0158 0.008
                        }
                      }
                    }
                  }
                }
              }
            }
          }
        }
      }
    }
  }
  JOINT lThigh
  {
    OFFSET 8.367 -8.2066 0.5982
    CHANNELS 3 Zrotation Xrotation Yrotation
    JOINT lShin
    {
      OFFSET 2.1923 -43.463 -0.4932
      CHANNELS 3 Zrotation Xrotation Yrotation
      JOINT lFoot
      {
        OFFSET 0.7333 -45.8593 -2.6451
        CHANNELS 3 Zrotation Xrotation Yrotation
        End Site
        {
          OFFSET 2.6618 -4.2699 12.3931
        }
      }
    }
  }
  JOINT rThigh
  {
    OFFSET -8.367 -8.2066 0.5982
    CHANNELS 3 Zrotation Xrotation Yrotation
    JOINT rShin
    {
      OFFSET -2.1923 -43.463 -0.4931
      CHANNELS 3 Zrotation Xrotation Yrotation
      JOINT rFoot
      {
        OFFSET -0.7333 -45.8593 -2.6451
        CHANNELS 3 Zrotation Xrotation Yrotation
        End Site
        {
          OFFSET -2.6618 -4.2699 12.3931
        }
      }
    }
  }
}
MOTION
Frames:	6
Frame Time:	0.0333333
0 91.7903 2.51682 0 0 -0 0 0 -0 0 0 -0 0 0 -0 0 0 -0 0 0 -0 0 0 -0 1.66051 0.0835086 5.75766 -0.0175111 0.895433 15.7816 7.95139e-016 -1.98785e-016 -0 5.46658e-016 -3.97569e-016 -0 5.96354e-016 0 -0 3.97569e-016 1.98785e-016 9.54166e-015 1.49089e-016 -3.97569e-016 -0 6.4605e-016 0 3.18055e-015 5.96354e-016 0 3.18055e-015 8.94531e-016 -1.98785e-016 6.36111e-015 6.4605e-016 0 3.18055e-015 5.96354e-016 0 3.18055e-015 8.94531e-016 -1.98785e-016 6.36111e-015 1.49089e-016 -3.97569e-016 -0 6.4605e-016 0 3.18055e-015 5.96354e-016 0 3.18055e-015 8.94531e-016 -1.98785e-016 6.36111e-015 6.4605e-016 0 3.18055e-015 5.96354e-016 0 3.18055e-015 8.94531e-016 -1.98785e-016 6.36111e-015 0 0 -0 -1.4496 0.0636048 -5.0245 -1.74811 1.20616 -16.8394 -1.19271e-015 1.98785e-016 -3.18055e-015 -3.97569e-016 1.98785e-016 -3.18055e-015 -2.98177e-016 1.98785e-016 -3.18055e-015 -2.98177e-016 3.97569e-016 -0 4.96962e-016 0 -6.36111e-015 -9.93923e-017 3.97569e-016 -0 -8.94531e-016 5.96354e-016 -0 -3.97569e-016 3.97569e-016 -0 -9.93923e-017 3.97569e-016 -0 -8.94531e-016 5.96354e-016 -0 -3.97569e-016 3.97569e-016 -0 4.96962e-016 0 -6.36111e-015 -9.93923e-017 3.97569e-016 -0 -8.94531e-016 5.96354e-016 -0 -3.97569e-016 3.97569e-016 -0 -9.93923e-017 3.97569e-016 -0 -8.94531e-016 5.96354e-016 -0 -3.97569e-016 3.97569e-016 -0 -4.66111 -0.998717 0.12318 0.00986924 1.54847 0.176523 4.65186 -0.572283 -0.254274 4.66111 -0.998765 -0.123176 -0.00986867 1.54869 -0.176537 -4.65186 -0.572453 0.25427 
0.996688 88.2583 27.1835 0 29.9987 -0 0.365713 -1.27888 -0.449707 0.721642 -2.56062 -0.891571 0.721642 -2.56061 -0.891572 -1.00482e-005 0.225581 -1.97502e-005 -1.5499e-007 0.215065 3.63739e-007 -23.9789 31.0833 -6.22374 -79.9387 -53.755 -49.1856 -86.8894 3.60798 5.97423 143.021 27.8302 -86.973 -7.55403e-007 3.64786e-007 -1.94547e-006 -3.18055e-015 0 3.18055e-015 4.63104e-007 -6.81067e-007 -2.17303e-007 3.18055e-015 4.77083e-015 -0 -7.55403e-007 3.64786e-007 -1.94547e-006 -9.54166e-015 -1.59028e-015 -0 4.63104e-007 -6.81067e-007 -2.17303e-007 -7.55403e-007 3.64786e-007 -1.94547e-006 -9.54166e-015 -1.59028e-015 -0 4.63104e-007 -6.81067e-007 -2.17303e-007 3.18055e-015 4.77083e-015 -0 -7.55403e-007 3.64786e-007 -1.94547e-006 -9.54166e-015 -1.59028e-015 -0 4.63104e-007 -6.81067e-007 -2.17303e-007 -7.55403e-007 3.64786e-007 -1.94547e-006 -9.54166e-015 -1.59028e-015 -0 4.63104e-007 -6.81067e-007 -2.17303e-007 23.0653 29.2006 6.51999 80.0394 -53.743 50.1052 84.7272 2.72971 -6.11234 -144.878 28.4358 92.8693 2.30727e-007 3.42767e-007 -1.04084e-007 6.36111e-015 -4.77083e-015 -0 9.22908e-007 1.37107e-006 -4.16337e-007 9.54166e-015 3.18055e-015 6.36111e-015 2.30727e-007 3.42767e-007 -1.04084e-007 -6.36111e-015 -1.27222e-014 -3.18055e-015 9.22908e-007 1.37107e-006 -4.16337e-007 2.30727e-007 3.42767e-007 -1.04084e-007 -6.36111e-015 -1.27222e-014 -3.18055e-015 9.22908e-007 1.37107e-006 -4.16337e-007 9.54166e-015 3.18055e-015 6.36111e-015 2.30727e-007 3.42767e-007 -1.04084e-007 -6.36111e-015 -1.27222e-014 -3.18055e-015 9.22908e-007 1.37107e-006 -4.16337e-007 2.30727e-007 3.42767e-007 -1.04084e-007 -6.36111e-015 -1.27222e-014 -3.18055e-015 9.22908e-007 1.37107e-006 -4.16337e-007 19.4962 -57.2919 17.0683 -4.13845 28.7385 5.76207 5.25142 13.8924 19.203 -20.1266 -56.5517 -14.6096 4.08324 27.1828 -5.67039 -2.66191 15.5164 -21.7051 
0.996622 88.3616 27.6252 0 29.0021 -0 0.3623 -0.925475 -0.455359 0.717371 -1.8538 -0.905033 0.717371 -1.85381 -0.905033 -1.12727e-005 0.304633 -3.36697e-005 1.81842e-007 0.290725 2.40551e-009 -23.9789 31.0833 -6.22377 -79.9388 -53.755 -49.1856 -86.8894 3.60797 5.97424 142.823 27.2524 -87.0528 -0 0 6.36111e-015 3.1873e-006 1.16904e-006 1.82694e-008 -3.1873e-006 -1.16904e-006 -1.82695e-008 -0 0 6.36111e-015 3.18055e-015 4.77083e-015 3.18055e-015 3.1873e-006 1.16904e-006 1.82694e-008 -3.1873e-006 -1.16904e-006 -1.82695e-008 3.18055e-015 4.77083e-015 3.18055e-015 3.1873e-006 1.16904e-006 1.82694e-008 -3.1873e-006 -1.16904e-006 -1.82695e-008 -0 0 6.36111e-015 3.18055e-015 4.77083e-015 3.18055e-015 3.1873e-006 1.16904e-006 1.82694e-008 -3.1873e-006 -1.16904e-006 -1.82695e-008 3.18055e-015 4.77083e-015 3.18055e-015 3.1873e-006 1.16904e-006 1.82694e-008 -3.1873e-006 -1.16904e-006 -1.82695e-008 23.0653 29.2006 6.51998 80.0394 -53.743 50.1052 84.7272 2.72972 -6.11235 -144.611 27.88 92.9048 -3.18055e-015 0 -6.36111e-015 -6.36111e-015 0 -9.54166e-015 -4.60903e-007 -6.85636e-007 2.08864e-007 3.18055e-015 0 -0 -3.18055e-015 -1.90833e-014 -3.18055e-015 -3.18055e-015 0 -6.36111e-015 -4.60903e-007 -6.85636e-007 2.08864e-007 -3.18055e-015 -1.90833e-014 -3.18055e-015 -3.18055e-015 0 -6.36111e-015 -4.60903e-007 -6.85636e-007 2.08864e-007 3.18055e-015 0 -0 -3.18055e-015 -1.90833e-014 -3.18055e-015 -3.18055e-015 0 -6.36111e-015 -4.60903e-007 -6.85636e-007 2.08864e-007 -3.18055e-015 -1.90833e-014 -3.18055e-015 -3.18055e-015 0 -6.36111e-015 -4.60903e-007 -6.85636e-007 2.08864e-007 19.9102 -55.8996 18.3186 -4.13268 28.7073 5.73882 5.70385 13.3914 17.9689 -20.5612 -55.1662 -16.029 4.07713 27.1513 -5.64783 -3.22081 15.0567 -20.2909 
0.996286 88.4631 28.0673 0 28.0043 -0 0.35886 -0.571328 -0.460933 0.713165 -1.1455 -0.918347 0.713166 -1.1455 -0.918348 2.76632e-005 0.384521 -9.81297e-005 -3.98355e-007 0.366394 -9.23135e-008 -23.9787 31.0832 -6.22386 -79.9388 -53.7549 -49.1856 -86.8894 3.60798 5.97424 142.625 26.6746 -87.1345 8.82781e-032 1.59028e-015 -3.18055e-015 -1.76556e-031 -3.18055e-015 -3.18055e-015 6.36111e-015 0 3.18055e-015 -3.18055e-015 3.18055e-015 -3.18055e-015 -3.53113e-030 1.27222e-014 1.59028e-014 3.53113e-031 -6.36111e-015 3.18055e-015 3.18055e-015 -3.18055e-015 -0 -3.53113e-030 1.27222e-014 1.59028e-014 3.53113e-031 -6.36111e-015 3.18055e-015 3.18055e-015 -3.18055e-015 -0 -3.18055e-015 3.18055e-015 -3.18055e-015 -3.53113e-030 1.27222e-014 1.59028e-014 3.53113e-031 -6.36111e-015 3.18055e-015 3.18055e-015 -3.18055e-015 -0 -3.53113e-030 1.27222e-014 1.59028e-014 3.53113e-031 -6.36111e-015 3.18055e-015 3.18055e-015 -3.18055e-015 -0 23.0654 29.2005 6.51994 80.0395 -53.743 50.1052 84.7272 2.72973 -6.11237 -144.345 27.3241 92.9432 1.82225e-006 -3.21286e-006 6.3292e-007 -2.0199e-006 -1.46475e-006 -1.38822e-006 -4.60347e-007 -6.85737e-007 2.09564e-007 1.27222e-014 0 6.36111e-015 1.82225e-006 -3.21286e-006 6.3292e-007 -2.0199e-006 -1.46475e-006 -1.38822e-006 -4.60347e-007 -6.85737e-007 2.09564e-007 1.82225e-006 -3.21286e-006 6.3292e-007 -2.0199e-006 -1.46475e-006 -1.38822e-006 -4.60347e-007 -6.85737e-007 2.09564e-007 1.27222e-014 0 6.36111e-015 1.82225e-006 -3.21286e-006 6.3292e-007 -2.0199e-006 -1.46475e-006 -1.38822e-006 -4.60347e-007 -6.85737e-007 2.09564e-007 1.82225e-006 -3.21286e-006 6.3292e-007 -2.0199e-006 -1.46475e-006 -1.38822e-006 -4.60347e-007 -6.85737e-007 2.09564e-007 20.2644 -54.4987 19.5178 -4.12806 28.6807 5.71467 6.1428 12.8775 16.7395 -20.9299 -53.7715 -17.3929 4.07231 27.1248 -5.62419 -3.76572 14.5796 -18.8815 
0.995673 88.5625 28.5098 0 27.0054 -0 0.355446 -0.216537 -0.466504 0.709125 -0.436002 -0.931667 0.709125 -0.435994 -0.931666 -0.000108341 0.464491 0.00012505 -1.18978e-007 0.442052 -3.78773e-007 -23.9791 31.0833 -6.22355 -79.9388 -53.755 -49.1856 -86.8894 3.60798 5.97424 142.428 26.0968 -87.218 3.18055e-015 1.11319e-014 9.54166e-015 -3.18055e-015 6.36111e-015 1.59028e-014 -9.22889e-007 1.36285e-006 4.38083e-007 3.18055e-015 1.59028e-015 -3.18055e-015 9.54166e-015 7.95139e-015 6.36111e-015 -6.36111e-015 4.77083e-015 9.54166e-015 -9.22889e-007 1.36285e-006 4.38083e-007 9.54166e-015 7.95139e-015 6.36111e-015 -6.36111e-015 4.77083e-015 9.54166e-015 -9.22889e-007 1.36285e-006 4.38083e-007 3.18055e-015 1.59028e-015 -3.18055e-015 9.54166e-015 7.95139e-015 6.36111e-015 -6.36111e-015 4.77083e-015 9.54166e-015 -9.22889e-007 1.36285e-006 4.38083e-007 9.54166e-015 7.95139e-015 6.36111e-015 -6.36111e-015 4.77083e-015 9.54166e-015 -9.22889e-007 1.36285e-006 4.38083e-007 23.0651 29.2008 6.52009 80.0395 -53.743 50.1053 84.7272 2.72973 -6.11237 -144.079 26.7681 92.9842 4.59786e-007 6.85838e-007 -2.10268e-007 4.59786e-007 6.85838e-007 -2.10268e-007 4.59786e-007 6.85838e-007 -2.10268e-007 3.18055e-015 0 6.36111e-015 4.59786e-007 6.85838e-007 -2.10268e-007 4.59786e-007 6.85838e-007 -2.10268e-007 4.59786e-007 6.85838e-007 -2.10268e-007 4.59786e-007 6.85838e-007 -2.10268e-007 4.59786e-007 6.85838e-007 -2.10268e-007 4.59786e-007 6.85838e-007 -2.10268e-007 3.18055e-015 0 6.36111e-015 4.59786e-007 6.85838e-007 -2.10268e-007 4.59786e-007 6.85838e-007 -2.10268e-007 4.59786e-007 6.85838e-007 -2.10268e-007 4.59786e-007 6.85838e-007 -2.10268e-007 4.59786e-007 6.85838e-007 -2.10268e-007 4.59786e-007 6.85838e-007 -2.10268e-007 20.5649 -53.0907 20.6717 -4.1246 28.6589 5.68971 6.56791 12.3512 15.515 -21.2386 -52.3691 -18.707 4.0687 27.1031 -5.59951 -4.29611 14.0861 -17.4774 
0.994784 88.6597 28.9524 0 26.0056 -0 0.351999 0.13883 -0.472007 0.705132 0.274756 -0.944864 0.705132 0.274757 -0.944864 -0.000220575 0.544012 0.000241043 -3.231e-007 0.517732 -5.99829e-007 -23.9792 31.0831 -6.22348 -79.9388 -53.7549 -49.1856 -86.8894 3.60798 5.97424 142.23 25.519 -87.3033 4.60882e-007 -6.81541e-007 -2.19627e-007 -0 -4.77083e-015 -0 -3.18055e-015 -6.36111e-015 3.18055e-015 -7.06225e-031 6.36111e-015 6.36111e-015 4.60882e-007 -6.81541e-007 -2.19627e-007 0 0 -0 6.36111e-015 1.59028e-015 3.18055e-015 4.60882e-007 -6.81541e-007 -2.19627e-007 0 0 -0 6.36111e-015 1.59028e-015 3.18055e-015 -7.06225e-031 6.36111e-015 6.36111e-015 4.60882e-007 -6.81541e-007 -2.19627e-007 0 0 -0 6.36111e-015 1.59028e-015 3.18055e-015 4.60882e-007 -6.81541e-007 -2.19627e-007 0 0 -0 6.36111e-015 1.59028e-015 3.18055e-015 23.065 29.2007 6.52028 80.0394 -53.7429 50.1052 84.7272 2.72973 -6.11236 -143.814 26.212 93.028 -6.36111e-015 4.77083e-015 -3.18055e-015 3.18055e-015 7.95139e-015 -0 4.59221e-007 6.85938e-007 -2.10974e-007 -6.36111e-015 1.59028e-015 -0 3.18055e-015 0 -9.54166e-015 1.76556e-031 3.18055e-015 -3.18055e-015 4.59221e-007 6.85938e-007 -2.10974e-007 3.18055e-015 0 -9.54166e-015 1.76556e-031 3.18055e-015 -3.18055e-015 4.59221e-007 6.85938e-007 -2.10974e-007 -6.36111e-015 1.59028e-015 -0 3.18055e-015 0 -9.54166e-015 1.76556e-031 3.18055e-015 -3.18055e-015 4.59221e-007 6.85938e-007 -2.10974e-007 3.18055e-015 0 -9.54166e-015 1.76556e-031 3.18055e-015 -3.18055e-015 4.59221e-007 6.85938e-007 -2.10974e-007 20.8166 -51.6765 21.7852 -4.12222 28.6414 5.66393 6.97892 11.8133 14.2957 -21.4934 -50.9608 -19.9772 4.06649 27.087 -5.57396 -4.81149 13.5762 -16.0792 
